<?xml version="1.0" encoding="iso-8859-1"?>
<!-- Generator: Adobe Illustrator 17.1.0, SVG Export Plug-In . SVG Version: 6.00 Build 0)  -->
<!DOCTYPE svg PUBLIC "-//W3C//DTD SVG 1.1//EN" "http://www.w3.org/Graphics/SVG/1.1/DTD/svg11.dtd">
<svg version="1.1" id="Capa_1" xmlns="http://www.w3.org/2000/svg" xmlns:xlink="http://www.w3.org/1999/xlink" x="0px" y="0px"
	 viewBox="0 0 259.473 259.473" style="enable-background:new 0 0 259.473 259.473;" xml:space="preserve">
<path d="M247.395,44.944H129.095c-6.659,0-12.077,5.418-12.077,12.077v5.091H81.654c-6.002,0-13.614,3.693-17.329,8.409
	l-23.693,30.074c-3.087,3.918-9.517,8.997-14.041,11.093l-16.588,7.684C4.393,121.969,0,128.846,0,135.028v43.994
	c0,6.492,5.281,11.773,11.773,11.773h5.243c3.989,13.694,16.644,23.733,31.609,23.733c14.965,0,27.62-10.039,31.609-23.733h80.422
	c3.989,13.694,16.645,23.733,31.609,23.733c14.965,0,27.62-10.039,31.609-23.733h23.823c6.492,0,11.773-5.281,11.773-11.773v-62.859
	V73.885V57.021C259.473,50.362,254.055,44.944,247.395,44.944z M48.626,197.957c-9.031,0-16.355-7.323-16.355-16.355
	c0-9.032,7.324-16.355,16.355-16.355c9.033,0,16.355,7.322,16.355,16.355C64.981,190.634,57.659,197.957,48.626,197.957z
	 M116.614,108.334c0,4.303-3.519,7.775-7.821,7.717l-49.354-0.662c-4.302-0.058-5.668-2.889-3.036-6.292l19.445-25.146
	c2.632-3.403,8.305-6.188,12.607-6.188h20.336c4.303,0,7.822,3.52,7.822,7.822V108.334z M192.267,197.957
	c-9.031,0-16.354-7.323-16.354-16.355c0-9.032,7.322-16.355,16.354-16.355c9.033,0,16.355,7.322,16.355,16.355
	C208.622,190.634,201.3,197.957,192.267,197.957z M225.326,118.423c0,3.351-2.727,6.077-6.077,6.077h-11.754
	c-1.061,0-1.923,0.862-1.923,1.923v11.753c0,3.351-2.727,6.077-6.077,6.077h-22.5c-3.351,0-6.077-2.727-6.077-6.077v-11.753
	c0-1.061-0.862-1.923-1.923-1.923h-11.752c-3.351,0-6.077-2.727-6.077-6.077v-22.5c0-3.351,2.727-6.077,6.077-6.077h11.752
	c1.061,0,1.923-0.862,1.923-1.923V76.17c0-3.351,2.727-6.077,6.077-6.077h22.5c3.351,0,6.077,2.727,6.077,6.077v11.753
	c0,1.061,0.862,1.923,1.923,1.923h11.754c3.351,0,6.077,2.727,6.077,6.077V118.423z"/>
<g>
</g>
<g>
</g>
<g>
</g>
<g>
</g>
<g>
</g>
<g>
</g>
<g>
</g>
<g>
</g>
<g>
</g>
<g>
</g>
<g>
</g>
<g>
</g>
<g>
</g>
<g>
</g>
<g>
</g>
</svg>
