<?xml version="1.0" encoding="iso-8859-1"?>
<!-- Generator: Adobe Illustrator 19.0.0, SVG Export Plug-In . SVG Version: 6.00 Build 0)  -->
<svg version="1.1" id="Capa_1" xmlns="http://www.w3.org/2000/svg" xmlns:xlink="http://www.w3.org/1999/xlink" x="0px" y="0px"
	 viewBox="0 0 512 512" style="enable-background:new 0 0 512 512;" xml:space="preserve">
<g>
	<g>
		<path d="M468.904,29.251H42.095c-6.746,0-12.236,5.489-12.236,12.236v233.065c0,6.746,5.488,12.236,12.236,12.236h426.81
			c6.747,0,12.236-5.489,12.236-12.236V41.487C481.14,34.74,475.652,29.251,468.904,29.251z M466.139,271.786H44.86V44.252h421.279
			V271.786z"/>
	</g>
</g>
<g>
	<g>
		<path d="M255.499,78.57c-44.079,0-79.939,35.86-79.939,79.939c0,44.079,35.86,79.939,79.939,79.939s79.939-35.86,79.939-79.939
			C335.438,114.43,299.578,78.57,255.499,78.57z M255.499,223.447c-35.807,0-64.938-29.131-64.938-64.938
			s29.131-64.938,64.938-64.938s64.938,29.131,64.938,64.938C320.437,194.316,291.307,223.447,255.499,223.447z"/>
	</g>
</g>
<g>
	<g>
		<path d="M286.061,148.869l-43.767-24.67c-7.086-3.996-15.642,1.361-15.642,9.64v49.342c0,8.292,8.568,13.628,15.641,9.64
			l22.41-12.632l21.356-12.04C293.411,164.007,293.413,153.013,286.061,148.869z M241.654,175.961v-34.903l30.96,17.451
			L241.654,175.961z"/>
	</g>
</g>
<g>
	<g>
		<path d="M493.464,428.328v-9.395c0-12.536-9.018-22.99-20.882-25.193c5.348-6.673,8.56-15.143,8.56-24.356
			c0-21.461-17.39-38.922-38.766-38.922s-38.766,17.46-38.766,38.922c0,9.213,3.211,17.682,8.56,24.356
			c-11.866,2.203-20.882,12.658-20.882,25.193v9.395c-4.189,0.688-7.984,2.56-11.036,5.262c-3.051-2.702-6.846-4.574-11.036-5.262
			v-9.395c0-12.536-9.018-22.99-20.883-25.193c5.348-6.673,8.56-15.143,8.56-24.356c0-21.461-17.39-38.922-38.766-38.922
			c-21.376,0-38.766,17.46-38.766,38.922c0,9.213,3.211,17.682,8.56,24.356c-11.866,2.203-20.882,12.658-20.882,25.193v9.395
			c-4.189,0.688-7.984,2.56-11.036,5.262c-3.051-2.702-6.846-4.574-11.036-5.262v-9.395c0-12.536-9.018-22.99-20.882-25.193
			c5.348-6.673,8.56-15.143,8.56-24.356c0-21.461-17.39-38.922-38.766-38.922c-21.375,0-38.765,17.46-38.765,38.922
			c0,9.213,3.211,17.682,8.56,24.356c-11.866,2.203-20.883,12.658-20.883,25.193v9.395c-4.189,0.688-7.984,2.56-11.035,5.262
			c-3.051-2.702-6.846-4.574-11.036-5.262v-9.395c0-12.536-9.018-22.99-20.882-25.193c5.348-6.673,8.56-15.143,8.56-24.356
			c0-21.461-17.39-38.922-38.766-38.922c-21.375,0-38.765,17.46-38.765,38.922c0,9.213,3.211,17.682,8.56,24.356
			c-11.866,2.203-20.883,12.658-20.883,25.193v9.395C8.039,430.052,0,439.212,0,450.224v46.391C0,505.098,6.901,512,15.385,512
			H123.01c3.089,0,5.969-0.883,8.431-2.386c2.375,1.503,5.18,2.386,8.193,2.386h108.214c2.948,0,5.698-0.834,8.055-2.257
			c2.33,1.422,5.057,2.257,7.981,2.257h109.592c2.617,0,5.063-0.72,7.174-1.954c2.217,1.24,4.766,1.954,7.482,1.954h105.971
			c9.868,0,17.895-8.027,17.895-17.895v-43.881C512,439.212,503.961,430.051,493.464,428.328z M69.625,345.463
			c13.105,0,23.765,10.731,23.765,23.921c0,13.191-10.661,23.922-23.765,23.922c-13.104,0-23.764-10.731-23.764-23.922
			C45.861,356.194,56.521,345.463,69.625,345.463z M33.537,418.933c0-5.859,4.726-10.627,10.537-10.627h51.105
			c5.81,0,10.537,4.767,10.537,10.627v9.1H33.537V418.933z M124.25,495.76c0,0.683-0.556,1.239-1.239,1.239H15.385
			c-0.211,0-0.384-0.172-0.384-0.384v-46.391c0-3.964,3.193-7.19,7.117-7.19c11.734,0,85.414,0,95.014,0
			c3.924,0,7.117,3.226,7.117,7.19V495.76z M193.875,345.463c13.105,0,23.765,10.731,23.765,23.921
			c0,13.191-10.661,23.922-23.765,23.922c-13.104,0-23.764-10.731-23.764-23.922C170.11,356.194,180.771,345.463,193.875,345.463z
			 M157.787,418.933c0-5.859,4.727-10.627,10.537-10.627h51.104c5.81,0,10.537,4.767,10.537,10.627v9.1h-72.177V418.933z
			 M248.499,496.347c0,0.359-0.292,0.652-0.651,0.652H139.634c-0.211,0-0.384-0.172-0.384-0.384c0-10.162,0-35.456,0-46.391
			c0-3.964,3.193-7.19,7.117-7.19c9.607,0,83.267,0,95.014,0c3.924,0,7.117,3.226,7.117,7.19V496.347z M318.124,345.463
			c13.105,0,23.765,10.731,23.765,23.921c0,13.191-10.661,23.922-23.765,23.922s-23.765-10.731-23.765-23.922
			C294.359,356.194,305.021,345.463,318.124,345.463z M292.573,408.307h51.104c5.81,0,10.537,4.767,10.537,10.627v9.1h-72.177v-9.1
			h0C282.036,413.074,286.762,408.307,292.573,408.307z M372.75,496.615v0.384H263.884c-0.211,0-0.384-0.172-0.384-0.384v-0.268
			v-46.123c0-3.964,3.192-7.19,7.117-7.19c9.607,0,83.267,0,95.015,0c3.924,0,7.117,3.226,7.117,7.19V496.615z M442.375,345.463
			c13.105,0,23.765,10.731,23.765,23.921c0,13.191-10.661,23.922-23.765,23.922s-23.765-10.731-23.765-23.922
			C418.609,356.194,429.27,345.463,442.375,345.463z M416.822,408.307h51.105c5.81,0,10.537,4.767,10.537,10.627v9.1h-72.177v-9.1
			h-0.001C406.286,413.074,411.012,408.307,416.822,408.307z M497,494.105h-0.001c0,1.596-1.298,2.894-2.894,2.894H388.133
			c-0.211,0-0.383-0.172-0.383-0.384v-46.391c0-3.964,3.192-7.19,7.117-7.19c11.734,0,85.415,0,95.015,0
			c3.924,0,7.117,3.226,7.117,7.19V494.105z"/>
	</g>
</g>
<g>
	<g>
		<path d="M492.499,0H273.501c-4.142,0-7.5,3.358-7.5,7.5c0,4.142,3.358,7.5,7.5,7.5h218.997c2.439,0,4.5,2.061,4.5,4.5v121.017
			c0,4.142,3.358,7.5,7.5,7.5c4.142,0,7.5-3.358,7.5-7.5V19.501C512,8.749,503.251,0,492.499,0z"/>
	</g>
</g>
<g>
	<g>
		<path d="M504.5,168.02c-4.142,0-7.5,3.358-7.5,7.5v121.016c0,2.439-2.061,4.5-4.5,4.5H19.501c-2.439,0-4.5-2.061-4.5-4.5V19.501
			c0-2.439,2.061-4.5,4.5-4.5h218.997c4.142,0,7.5-3.358,7.5-7.5c0-4.142-3.358-7.5-7.5-7.5H19.501C8.749,0,0,8.749,0,19.501
			v277.036c0,10.753,8.749,19.501,19.501,19.501h472.998c10.753,0,19.501-8.749,19.501-19.501V175.521
			C512,171.378,508.642,168.02,504.5,168.02z"/>
	</g>
</g>
<g>
</g>
<g>
</g>
<g>
</g>
<g>
</g>
<g>
</g>
<g>
</g>
<g>
</g>
<g>
</g>
<g>
</g>
<g>
</g>
<g>
</g>
<g>
</g>
<g>
</g>
<g>
</g>
<g>
</g>
</svg>
