<svg id="Capa_1" enable-background="new 0 0 512 512" height="512" viewBox="0 0 512 512" width="512" xmlns="http://www.w3.org/2000/svg"><g><path d="m124.151 128.43c16.529 0 29.978-13.448 29.978-29.978s-13.448-29.978-29.978-29.978h-22.17c-5.522 0-10 4.477-10 10v80c0 5.523 4.478 10 10 10s10-4.477 10-10v-30.044zm-12.17-39.955h12.17c5.502 0 9.978 4.476 9.978 9.978 0 5.501-4.476 9.978-9.978 9.978h-12.17z"/><path d="m159.911 438h-11.43v-204.903c50.848-13.318 88.475-59.657 88.475-114.623 0-65.327-53.147-118.474-118.475-118.474s-118.474 53.147-118.474 118.475c0 54.966 37.627 101.304 88.475 114.623v204.902h-11.43c-5.522 0-10 4.477-10 10v54c0 5.523 4.478 10 10 10h82.859c5.522 0 10-4.477 10-10v-54c0-5.523-4.477-10-10-10zm-139.904-319.525c0-54.3 44.176-98.475 98.474-98.475s98.475 44.175 98.475 98.475-44.176 98.475-98.475 98.475-98.474-44.176-98.474-98.475zm88.474 118.048c3.298.277 6.632.426 10 .426s6.702-.149 10-.426v201.477h-20zm41.43 255.477h-62.859v-34h62.859z"/><circle cx="264.169" cy="404.017" r="24"/><circle cx="442.171" cy="404.017" r="24"/><path d="m390.092 391.271h-73.843c-2.209 0-4 1.791-4 4v17.491c0 2.209 1.791 4 4 4h73.843c2.209 0 4-1.791 4-4v-17.491c0-2.209-1.791-4-4-4z"/><path d="m489.177 339.315 1.292-3.083h11.524c5.522 0 10-4.477 10-10s-4.478-10-10-10h-18.178c-3.62 0-6.907 1.961-8.671 5.052l-23.152-52.948c-6.553-14.987-21.356-24.671-37.715-24.671h-122.215c-16.356 0-31.16 9.684-37.715 24.671l-23.152 52.948c-1.764-3.09-5.051-5.052-8.671-5.052h-18.178c-5.522 0-10 4.477-10 10s4.478 10 10 10h11.524l1.292 3.083c-13.371 5.486-22.816 18.64-22.816 33.965v68.357c0 12.935 8.281 23.968 19.818 28.088v18.289c0 13.226 10.76 23.986 23.985 23.986h27.988c13.226 0 23.985-10.76 23.985-23.986v-16.559h126.092v16.559c0 13.226 10.76 23.986 23.986 23.986h27.987c13.226 0 23.985-10.76 23.985-23.986v-18.289c11.538-4.12 19.818-15.153 19.818-28.088v-68.357c.003-15.325-9.441-28.479-22.813-33.965zm-55.509-62.967 26.337 60.231h-53.168l-53.913-72.915h61.353c8.411.001 16.022 4.979 19.391 12.684zm-160.996.001c3.37-7.705 10.981-12.684 19.391-12.684h10.877l53.913 72.915h-110.519zm-58.325 96.931c0-9.203 7.483-16.69 16.684-16.7.007 0 .014.001.021.001.017 0 .033-.002.05-.002h244.136c.017 0 .033.002.05.002h.004s.003 0 .004 0c.007 0 .014-.001.021-.001 9.197.014 16.675 7.499 16.675 16.699v68.357c0 5.414-4.404 9.818-9.818 9.818h-258.01c-5.414 0-9.818-4.404-9.818-9.818v-68.356zm55.777 114.734c0 2.198-1.788 3.986-3.985 3.986h-27.989c-2.197 0-3.985-1.788-3.985-3.986v-16.559h35.959zm202.051 0c0 2.198-1.788 3.986-3.985 3.986h-27.987c-2.198 0-3.986-1.788-3.986-3.986v-16.559h35.959v16.559z"/></g></svg>