<svg id="Capa_1" enable-background="new 0 0 512 512" height="512" viewBox="0 0 512 512" width="512" xmlns="http://www.w3.org/2000/svg"><g><path d="m93.28 355.83c11.15 8.6 22.44 14.69 42.22 14.69 21.02 0 32.44-6.88 44.32-16.34v-43.18h-86.54z"/><path d="m0 146v175.38c29.47-3.16 48.5 2.83 63.28 11.63v-202.01h-48.28c-8.28 0-15 6.72-15 15z"/><path d="m93.28 131h86.54v75h-86.54z"/><path d="m93.28 236h86.54v45h-86.54z"/><path d="m497 131h-287.18v200.84c11.73-6.55 26.22-11.32 46.18-11.32 66.416 0 68.02 50 120.5 50 55.728 0 55.201-57.779 135.5-49.16v-175.36c0-8.28-6.72-15-15-15z"/><path d="m446.33 372.06c-16.08 13.34-34.29 28.46-69.83 28.46-66.39 0-68.066-50-120.5-50-51.69 0-54.657 50-120.5 50-72.589 0-65.995-58.043-135.5-48.97v145.45c0 8.28 6.72 15 15 15h482c8.28 0 15-6.72 15-15v-145.44c-35.33-4.67-48.85 6.54-65.67 20.5z"/><path d="m51.28 0c-23.16 0-42 18.84-42 42v24c0 8.28 6.72 15 15 15s15-6.72 15-15v-24c0-6.62 5.38-12 12-12s12 5.38 12 12v89h30v-89c0-23.16-18.84-42-42-42z"/><path d="m167.82 0c-23.16 0-42 18.84-42 42v24c0 8.28 6.72 15 15 15s15-6.72 15-15v-24c0-6.62 5.38-12 12-12s12 5.38 12 12v89h30v-89c0-23.16-18.84-42-42-42z"/></g></svg>